{
    "asset" : {
        "generator" : "Khronos glTF Blender I/O v3.4.50",
        "version" : "2.0"
    },
    "scene" : 0,
    "scenes" : [
        {
            "name" : "Scene",
            "nodes" : [
                0,
                1
            ]
        }
    ],
    "nodes" : [
        {
            "mesh" : 0,
            "name" : "Texto"
        },
        {
            "mesh" : 1,
            "name" : "Texto.001",
            "translation" : [
                -0.20909318327903748,
                -0.009361296892166138,
                0.6305760145187378
            ]
        }
    ],
    "materials" : [
        {
            "doubleSided" : true,
            "name" : "Materiais",
            "pbrMetallicRoughness" : {
                "baseColorFactor" : [
                    0.8000000715255737,
                    0.30932924151420593,
                    0,
                    1
                ],
                "metallicFactor" : 0,
                "roughnessFactor" : 0.5
            }
        },
        {
            "doubleSided" : true,
            "name" : "Materiais.001",
            "pbrMetallicRoughness" : {
                "baseColorFactor" : [
                    0.8000000715255737,
                    0.30932924151420593,
                    0,
                    1
                ],
                "metallicFactor" : 0,
                "roughnessFactor" : 0.5
            }
        }
    ],
    "meshes" : [
        {
            "name" : "Texto",
            "primitives" : [
                {
                    "attributes" : {
                        "POSITION" : 0,
                        "TEXCOORD_0" : 1,
                        "NORMAL" : 2
                    },
                    "indices" : 3,
                    "material" : 0
                }
            ]
        },
        {
            "name" : "Texto.001",
            "primitives" : [
                {
                    "attributes" : {
                        "POSITION" : 4,
                        "TEXCOORD_0" : 5,
                        "NORMAL" : 6
                    },
                    "indices" : 7,
                    "material" : 1
                }
            ]
        }
    ],
    "accessors" : [
        {
            "bufferView" : 0,
            "componentType" : 5126,
            "count" : 11662,
            "max" : [
                3.970576524734497,
                0.17000001668930054,
                0.010216591879725456
            ],
            "min" : [
                0.06702084094285965,
                -0.17000001668930054,
                -0.617490828037262
            ],
            "type" : "VEC3"
        },
        {
            "bufferView" : 1,
            "componentType" : 5126,
            "count" : 11662,
            "type" : "VEC2"
        },
        {
            "bufferView" : 2,
            "componentType" : 5126,
            "count" : 11662,
            "type" : "VEC3"
        },
        {
            "bufferView" : 3,
            "componentType" : 5123,
            "count" : 20808,
            "type" : "SCALAR"
        },
        {
            "bufferView" : 4,
            "componentType" : 5126,
            "count" : 8322,
            "max" : [
                4.501750946044922,
                0.06999999284744263,
                0.12650001049041748
            ],
            "min" : [
                0.02200000174343586,
                -0.06999999284744263,
                -0.38027411699295044
            ],
            "type" : "VEC3"
        },
        {
            "bufferView" : 5,
            "componentType" : 5126,
            "count" : 8322,
            "type" : "VEC2"
        },
        {
            "bufferView" : 6,
            "componentType" : 5126,
            "count" : 8322,
            "type" : "VEC3"
        },
        {
            "bufferView" : 7,
            "componentType" : 5123,
            "count" : 15120,
            "type" : "SCALAR"
        }
    ],
    "bufferViews" : [
        {
            "buffer" : 0,
            "byteLength" : 139944,
            "byteOffset" : 0,
            "target" : 34962
        },
        {
            "buffer" : 0,
            "byteLength" : 93296,
            "byteOffset" : 139944,
            "target" : 34962
        },
        {
            "buffer" : 0,
            "byteLength" : 139944,
            "byteOffset" : 233240,
            "target" : 34962
        },
        {
            "buffer" : 0,
            "byteLength" : 41616,
            "byteOffset" : 373184,
            "target" : 34963
        },
        {
            "buffer" : 0,
            "byteLength" : 99864,
            "byteOffset" : 414800,
            "target" : 34962
        },
        {
            "buffer" : 0,
            "byteLength" : 66576,
            "byteOffset" : 514664,
            "target" : 34962
        },
        {
            "buffer" : 0,
            "byteLength" : 99864,
            "byteOffset" : 581240,
            "target" : 34962
        },
        {
            "buffer" : 0,
            "byteLength" : 30240,
            "byteOffset" : 681104,
            "target" : 34963
        }
    ],
    "buffers" : [
        {
            "byteLength" : 711344,
            "uri" : "data:application/octet-stream;base64,"
        }
    ]
}
